<svg width="344" height="340" viewBox="0 0 344 340" fill="none" xmlns="http://www.w3.org/2000/svg">
<g clip-path="url(#clip0_5_1777)">
<path d="M180.198 50.9309L68.1822 141.238C54.466 105.825 20.0478 80.7259 -20.2205 80.7259C-21.5126 80.7259 -22.7905 80.7543 -24.0542 80.811V23.1081C-24.0542 10.1544 -13.547 -0.344788 -0.583324 -0.344788H162.08C189.299 -0.344788 201.397 33.8485 180.198 50.9309Z" fill="white"/>
<path d="M144.442 224.395L4.92263 336.863C-5.5988 345.348 -21.2603 337.857 -21.2603 324.35V270.109C-20.9195 270.109 -20.5645 270.109 -20.2237 270.109C24.787 270.109 62.471 238.753 72.1405 196.714H134.644C149.34 196.714 155.858 215.172 144.427 224.38L144.442 224.395Z" fill="white"/>
<path d="M68.1828 141.238L24.0382 176.836C4.69922 192.414 -24.0679 178.666 -24.0679 153.851V80.8251C-22.79 80.7684 -21.5121 80.74 -20.2342 80.74C20.0483 80.74 54.4524 105.839 68.1686 141.252L68.1828 141.238Z" fill="#DFF9CE"/>
<path d="M72.1405 196.714C62.471 238.753 24.7728 270.109 -20.2237 270.109C-20.5645 270.109 -20.9195 270.109 -21.2603 270.109V208.249C-21.2603 201.878 -16.0918 196.714 -9.71649 196.714H72.1547H72.1405Z" fill="#DFF9CE"/>
<path d="M74.5419 175.417C74.5419 182.738 73.7184 189.875 72.1423 196.713H-9.72893C-16.1043 196.713 -21.2727 201.878 -21.2727 208.248V270.108C-73.1273 269.555 -115 227.374 -115 175.417C-115 123.46 -74.6182 82.8256 -24.0699 80.8109V153.837C-24.0699 178.652 4.69721 192.4 24.0362 176.822L68.1807 141.224C72.2984 151.836 74.5419 163.357 74.5419 175.403V175.417Z" fill="#90E75E"/>
<path d="M243.042 82.0761L281.579 39.8949" stroke="#FFAF5F" stroke-width="0.5" stroke-miterlimit="10"/>
<path d="M255.376 56.1916L278.775 30.5742" stroke="#FFAF5F" stroke-width="0.5" stroke-miterlimit="10"/>
<path d="M258.009 78.5636L296.546 36.3823" stroke="#FFAF5F" stroke-width="0.5" stroke-miterlimit="10"/>
<path d="M262.88 105.161L301.418 62.9695" stroke="#FFAF5F" stroke-width="0.5" stroke-miterlimit="10"/>
<path d="M243.042 87.7161L275.972 51.6696" stroke="#FFAF5F" stroke-width="0.5" stroke-miterlimit="10"/>
<path d="M275.417 84.0649L308.337 48.0283" stroke="#FFAF5F" stroke-width="0.5" stroke-miterlimit="10"/>
<path d="M250.384 93.5145L283.314 57.4778" stroke="#FFAF5F" stroke-width="0.5" stroke-miterlimit="10"/>
<path d="M314.448 64.7208C313.964 37.8072 290.162 23.6775 269.194 30.2575C250.656 36.0657 242.689 52.8175 237.252 72.3892C234.307 82.9865 229.648 99.2534 222.396 107.328L220.833 109.01C220.137 109.712 219.37 110.415 218.493 111.137L209.113 120.309L213.924 124.594C216.829 121.655 220.016 118.578 223.364 115.649L225.523 113.799C238.574 104.112 263.243 110.781 278.21 108.297C300.752 104.547 314.942 86.7861 314.458 64.7208H314.448ZM232.895 104.28C228.044 106.091 230.434 105.487 231.806 102.865C237.696 91.6642 238.11 81.621 239.239 85.5097C242.144 95.5033 248.347 101.153 250.344 102.36C252.341 103.568 241.781 100.965 232.905 104.28H232.895ZM290.777 99.7086C274.005 109.02 254.196 102.677 246.531 85.5591C238.866 68.4314 246.259 47.0093 263.031 37.6983C279.804 28.3874 299.612 34.7299 307.277 51.8478C314.943 68.9756 307.55 90.4076 290.777 99.7086Z" fill="#002A4C"/>
<path d="M211.877 122.338C211.06 120.725 213.42 118.706 214.6 118.202C215.599 117.697 217.949 116.836 218.766 118.004L219.32 119.488C221.852 127.473 215.538 132.589 209.719 131.253" fill="#FFAF5F"/>
<path style="mix-blend-mode:multiply" opacity="0.5" d="M212.936 123.723L211.201 125.089L209.708 131.243C214.882 132.43 220.42 128.522 219.824 122.031C219.219 124.762 212.936 123.723 212.936 123.723Z" fill="url(#paint0_linear_5_1777)"/>
<path d="M323.142 297.019C319.34 291.271 305.997 288.945 299.471 288.183C284.716 285.888 268.589 283.602 259.31 269.077C256.224 264.486 251.665 259.222 247.873 256.154C235.598 246.22 222.094 243.726 208.629 239.343L203.173 229.211L207.701 197.726C207.701 197.726 214.045 184.892 214.408 184.348C214.771 183.804 223.536 178.946 223.536 178.946L227.691 184.348C238.18 195.776 248.548 208.956 256.274 219.712C260.137 225.095 271.372 234.267 274.751 239.65C292.603 249.584 307.701 263.348 323.142 277.111C326.914 280.169 332.411 285.522 334.811 288.579C342.698 295.822 344.272 302.412 340.883 305.103H321.942C319.491 301.878 324.816 299.75 323.122 297.029" fill="#FFAF5F"/>
<path d="M304.675 288.955C311.473 290.162 320.177 292.557 323.142 297.019C324.847 299.74 319.511 301.868 321.962 305.093H340.903C344.282 302.402 342.719 295.812 334.832 288.569C332.431 285.512 326.934 280.159 323.162 277.101C320.732 274.934 318.301 272.767 315.87 270.62C315.81 270.64 315.78 270.65 315.78 270.65C319.874 274.163 312.189 290.073 304.685 288.955H304.675Z" fill="#FFFDEE"/>
<path d="M109.689 226.242C100.45 239.343 77.011 254.65 72.6843 259.35C61.126 271.916 48.7811 280.03 28.4686 286.768C15.3571 291.112 6.25984 290.746 -5.08657 301.314C-8.85862 306.281 -36.3926 306.716 -36.3926 303.055C-32.8928 295.298 -27.3558 293.2 -19.6402 292.735C3.09293 277.487 13.3097 246.141 40.2184 236.642C47.6717 234.01 59.1997 208.729 59.1997 208.729L63.3852 202.426L70.1628 198.933L110.939 218.079L109.689 226.242Z" fill="#FFAF5F"/>
<path d="M0.833582 272.51C-5.28844 280.139 -11.6929 287.412 -19.6202 292.735C-27.3459 293.19 -32.8728 295.298 -36.3726 303.055C-36.3726 306.716 -8.83861 306.281 -5.06656 301.314C3.15329 293.645 10.2133 291.736 18.4634 289.608C11.9682 291.35 -1.9299 276.32 0.843666 272.51H0.833582Z" fill="#FFFDEE"/>
<path d="M109.83 230.101C110.102 235.623 106.804 234.9 102.81 234.168C102.81 234.168 108.337 230.596 99.9761 220.444C91.605 210.292 85.5737 206.206 85.5737 206.206C85.5737 206.206 108.004 219.494 109.84 230.101" fill="#002A4C"/>
<path d="M176.335 143.829C177.727 145.907 179.321 147.421 181.166 148.213C197.737 155.287 223.113 175.918 227.702 184.338C220.521 170.525 201.106 219.831 208.64 239.333C208.62 241.174 205.059 242.331 201.882 240.976C187.258 234.772 158.362 204.246 151.03 202.93C137.858 200.575 122.72 217.298 109.699 233.881C112.392 224.352 95.9522 213.508 91.6052 210.272C86.7742 207.047 81.459 203.277 76.1438 202.198C71.3128 200.585 62.1146 203.326 59.21 208.709L61.2271 204.702C68.3678 192.937 76.6582 186.673 83.3753 176.037L90.2235 163.45L101.883 159.156C101.883 159.156 158.968 159.967 159.694 159.967C160.42 159.967 176.345 143.819 176.345 143.819" fill="#FFFDEE"/>
<path d="M332.804 290.964C329.779 291.092 325.321 295.001 323.455 298.484C323.122 300.562 319.965 302.461 321.962 305.084H340.903C343.636 302.907 343.132 298.187 338.674 292.636C339.37 293.635 335.578 290.835 332.804 290.954V290.964Z" fill="#002A4C"/>
<path d="M215.659 192.234C211.978 201.219 207.298 225.896 211.756 240.332L208.63 239.343C208.63 239.343 201.963 223.551 215.659 192.234Z" fill="#002A4C"/>
<path style="mix-blend-mode:multiply" opacity="0.5" d="M102.175 220.434L84.0707 205.463C109.305 224.095 34.7617 276.438 15.3064 282.623C4.51468 286.056 -8.73793 297.692 -11.8847 296.198L-13.811 301.462L-11.2493 304.114C-8.29416 303.441 -5.99462 302.511 -5.07682 301.304C6.26959 290.736 15.3669 291.102 28.4783 286.759C31.5645 285.739 34.449 284.671 37.1923 283.582C46.6023 279.803 52.4016 277.121 60.4298 270.66C64.7868 267.315 68.7808 263.585 72.6839 259.35C76.4358 255.264 94.6304 243.172 105.392 231.477C104.958 227.222 104.585 223.561 104.585 223.561L102.175 220.434Z" fill="url(#paint1_linear_5_1777)"/>
<path style="mix-blend-mode:multiply" opacity="0.5" d="M326.44 294.615L326.955 294.358C314.458 281.336 269.506 254.907 262.134 250.603C254.761 246.299 201.367 230.616 215.659 192.234C205.896 218.109 211.756 240.303 211.756 240.332C224.181 244.152 236.546 246.992 247.873 256.154C251.655 259.221 256.224 264.495 259.31 269.077C268.578 283.602 284.706 285.898 299.471 288.183C305.996 288.945 319.34 291.27 323.142 297.019C323.465 297.524 323.535 298.009 323.455 298.484L326.44 294.605V294.615Z" fill="url(#paint2_linear_5_1777)"/>
<path style="mix-blend-mode:multiply" opacity="0.5" d="M167.046 197.32C152.644 185.654 138.463 182.755 123.254 193.857C114.409 200.308 97.9492 214.003 86.6733 207.047C88.3577 208.115 90.0016 209.233 91.5952 210.292C95.9421 213.518 112.382 224.362 109.689 233.901C122.71 217.317 137.858 200.595 151.02 202.95C158.352 204.266 187.248 234.791 201.872 240.995C205.049 242.341 208.609 241.183 208.63 239.353C206.038 232.644 206.633 222.403 208.831 212.419C205.543 217.723 187.117 213.587 167.046 197.33V197.32Z" fill="url(#paint3_linear_5_1777)"/>
<path style="mix-blend-mode:multiply" opacity="0.5" d="M84.5146 173.959C90.2232 165.706 92.563 163.065 121.872 168.932C142.78 173.118 183.465 183.289 176.335 143.839L160.309 159.552L111.322 159.314L93.1177 159.552L84.5146 173.959Z" fill="url(#paint4_linear_5_1777)"/>
<path d="M218.402 111.642L219.038 112.651C220.309 115.679 215.054 114.669 213.602 115.877L218.402 111.642Z" fill="#FFAF5F"/>
<path d="M188.952 49.5818C205.15 67.2439 216.466 90.4372 218.403 111.642L213.602 115.877L209.114 120.309C205.352 111.444 186.108 98.1254 177.808 81.0669C173.703 79.3452 169.013 78.4349 164.888 75.882L161.499 68.4511L167.208 54.826L183.093 43.8429L188.952 49.5818Z" fill="#FFAF5F"/>
<path d="M208.115 118.4C207.298 117.489 208.165 116.688 208.71 115.679C209.89 113.057 215.78 107.506 218.493 111.137C219.401 108.109 218.039 103.469 216.768 101.549C212.583 95.2263 200.49 107.248 202.719 111.642C203.899 113.967 205.392 117.084 208.115 118.4Z" fill="#007F6E"/>
<path d="M164.888 75.882C162.407 69.3614 168.155 57.6658 175.115 52.4117C185.765 44.3673 188.317 49.186 188.317 49.186C177.767 37.6884 165.574 28.9909 153.521 25.7652C131.423 19.8482 111.696 27.0515 91.9984 40.6964C81.1764 48.1966 70.768 57.5768 67.3187 71.8153C63.7685 86.4595 65.7655 112.156 71.9682 125.672C72.0287 120.438 110.032 100.965 110.032 100.965L92.8557 147.045C92.8557 157.979 90.4956 164.747 85.5637 172.563C90.3342 162.392 98.9071 161.927 106.643 163.005C119.815 164.836 178.09 177.738 176.456 147.48C176.456 145.274 176.335 143.829 176.335 143.829C166.592 129.274 166.743 87.073 161.469 73.1907C162.538 74.2593 163.688 75.1399 164.878 75.882" fill="#002A4C"/>
<path d="M110.042 100.965C115.518 116.381 113.299 122.1 123.083 125.811C128.973 128.047 128.882 117.262 188.317 120.487C191.807 120.062 199.653 116.787 204.898 118.509C214.116 121.526 216.194 126.909 210.233 130.916C204.444 134.815 198.604 133.885 195.568 132.628C191.403 130.916 188.952 133.539 186.108 135.587C158.292 155.703 110.939 169.456 89.7292 144.067C85.0293 138.446 80.0671 130.125 75.9219 121.111C75.9219 121.111 83.0827 114.293 110.032 100.965H110.042Z" fill="#FFAF5F"/>
<path d="M147.238 63.3059C148.993 64.0678 150.758 64.8296 152.422 65.7795C153.955 66.6503 155.316 67.7387 156.617 68.9063C157.586 69.7869 158.514 70.6972 159.401 71.657C159.522 71.7856 159.855 71.469 159.724 71.3404C158.171 69.8859 156.628 68.4214 154.893 67.1747C153.531 66.205 152.059 65.4134 150.526 64.7109C149.447 64.2162 148.337 63.7511 147.248 63.296L147.238 63.3059Z" fill="#002A4C"/>
<path d="M111.968 27.9123C123.082 28.4466 112.452 54.826 102.306 44.0605C99.4111 41.3692 100.047 36.8967 101.337 33.2951C101.58 32.6222 103.173 26.8437 101.801 25.8938C100.43 24.9538 101.822 23.6675 101.822 23.6675H103.092" fill="#FFAF5F"/>
<path d="M77.6462 124.713C77.6462 124.713 71.978 127.493 71.978 125.672C71.978 123.852 75.9316 121.111 75.9316 121.111L77.6563 124.713H77.6462Z" fill="#1D1D1D"/>
<path d="M190.606 132.589C187.631 133.064 188.024 120.181 191.292 119.844C191.292 119.844 180.349 117.4 175.457 119.973C175.457 119.973 173.924 132.777 179.915 139.772C179.915 139.772 184.837 139.614 190.616 132.589H190.606Z" fill="#007F6E"/>
<path style="mix-blend-mode:multiply" opacity="0.5" d="M89.729 144.076C109.436 167.666 151.696 157.464 179.895 139.772C179.895 139.772 182.598 139.772 186.491 136.665C189.103 134.578 190.324 132.698 190.324 132.698C191.816 131.995 193.471 131.767 195.548 132.628C198.594 133.885 203.98 134.954 210.213 130.916C213.491 128.799 213.561 126.256 213.561 126.256C213.541 127.958 203.163 132.737 188.589 127.958C183.254 128.829 149.346 141.613 126.512 146.659C103.678 151.705 86.8244 135.765 86.2797 124.673C85.7351 113.601 111.554 105.715 112.533 109.069C112.533 109.069 112.533 109.049 112.533 109.039L110.032 100.965C89.487 111.127 80.4502 117.499 77.3035 119.963C76.3655 120.705 75.9116 121.121 75.9116 121.121C80.0568 130.135 85.019 138.456 89.7189 144.076H89.729Z" fill="url(#paint5_linear_5_1777)"/>
<path style="mix-blend-mode:multiply" opacity="0.5" d="M181.247 66.7888C170.556 56.1916 150.627 45.5448 144.283 49.9876C144.283 49.9876 157.394 71.4987 164.888 75.8821C170.939 79.4244 173.703 79.3452 177.808 81.0669C186.108 98.1254 205.352 111.444 209.114 120.309C209.114 120.309 211.04 118.41 211.05 118.4C208.408 102.657 188.902 74.3682 181.247 66.7888Z" fill="url(#paint6_linear_5_1777)"/>
<path d="M161.469 73.1907C161.469 73.1907 146.814 55.2318 144.272 49.9777C144.272 49.9777 162.215 85.7471 156.053 99.1446C156.053 99.1446 164.736 88.1021 164.091 84.441C163.445 80.78 163.002 74.5661 161.469 73.1907Z" fill="#1D1D1D"/>
<path d="M111.282 99.7482C111.282 99.7482 103.214 82.1059 98.5542 74.7244C98.5542 74.7244 113.431 87.1225 113.35 111.948L110.022 100.975L111.272 99.7581L111.282 99.7482Z" fill="#1D1D1D"/>
<path style="mix-blend-mode:multiply" opacity="0.5" d="M102.78 25.2211C103.506 28.1103 107.429 32.8895 110.818 32.0188C114.197 31.148 111.958 28.8228 113.592 27.2396C115.226 25.6663 102.78 25.2211 102.78 25.2211Z" fill="url(#paint7_linear_5_1777)"/>
<path d="M103.143 24.2217C106.078 31.2866 112.23 28.2984 114.016 27.9916C116.698 27.5266 116.134 5.25353 102.659 10.3592C97.0717 12.4767 96.527 22.4605 101.792 25.9137C103.143 26.8537 103.506 25.0331 103.143 24.2316V24.2217Z" fill="#FFAF5F"/>
<path d="M103.567 23.0739C104.232 22.7375 101.802 19.0962 103.728 16.3653C105.059 14.4853 107.671 13.9312 109.588 13.1495C110.808 12.6448 111.101 11.7939 112.422 12.8625C112.906 10.4284 112.805 7.4501 109.547 6.38147C101.923 3.8979 94.6104 11.9126 96.3552 19.2941C97.0814 22.124 98.7355 26.1511 101.802 25.8939C99.9861 24.7461 98.7153 21.649 101.075 21.7084C102.8 21.7579 102.911 23.4004 103.567 23.064V23.0739Z" fill="#002A4C"/>
<path style="mix-blend-mode:multiply" opacity="0.5" d="M115.296 29.3768C116.103 32.929 115.468 44.9709 104.363 45.7624C104.363 45.7624 107.036 47.9987 110.435 45.7624C113.834 43.5262 116.476 38.8262 116.597 35.1652C116.708 32.1275 116.557 30.762 115.286 29.3768H115.296Z" fill="url(#paint8_linear_5_1777)"/>
<path d="M286.804 68.9161C292.062 68.9161 296.325 64.1672 296.325 58.309C296.325 52.4508 292.062 47.7018 286.804 47.7018C281.545 47.7018 277.283 52.4508 277.283 58.309C277.283 64.1672 281.545 68.9161 286.804 68.9161Z" fill="#E88F00"/>
<path style="mix-blend-mode:multiply" opacity="0.5" d="M286.804 68.9161C292.062 68.9161 296.325 64.1672 296.325 58.309C296.325 52.4508 292.062 47.7018 286.804 47.7018C281.545 47.7018 277.283 52.4508 277.283 58.309C277.283 64.1672 281.545 68.9161 286.804 68.9161Z" fill="url(#paint9_linear_5_1777)"/>
</g>
<defs>
<linearGradient id="paint0_linear_5_1777" x1="209.708" y1="126.751" x2="219.875" y2="126.751" gradientUnits="userSpaceOnUse">
<stop stop-color="white" stop-opacity="0"/>
<stop offset="0.95" stop-color="#5A5A5A"/>
</linearGradient>
<linearGradient id="paint1_linear_5_1777" x1="-13.8009" y1="254.789" x2="105.402" y2="254.789" gradientUnits="userSpaceOnUse">
<stop stop-color="white" stop-opacity="0"/>
<stop offset="0.95" stop-color="#5A5A5A"/>
</linearGradient>
<linearGradient id="paint2_linear_5_1777" x1="210.011" y1="245.359" x2="326.955" y2="245.359" gradientUnits="userSpaceOnUse">
<stop stop-color="white" stop-opacity="0"/>
<stop offset="0.95" stop-color="#5A5A5A"/>
</linearGradient>
<linearGradient id="paint3_linear_5_1777" x1="147.752" y1="179.153" x2="147.752" y2="244.696" gradientUnits="userSpaceOnUse">
<stop stop-color="white" stop-opacity="0"/>
<stop offset="0.95" stop-color="#5A5A5A"/>
</linearGradient>
<linearGradient id="paint4_linear_5_1777" x1="84.5146" y1="158.899" x2="177.162" y2="158.899" gradientUnits="userSpaceOnUse">
<stop stop-color="white" stop-opacity="0"/>
<stop offset="0.95" stop-color="#5A5A5A"/>
</linearGradient>
<linearGradient id="paint5_linear_5_1777" x1="75.9318" y1="129.412" x2="213.581" y2="129.412" gradientUnits="userSpaceOnUse">
<stop stop-color="white" stop-opacity="0"/>
<stop offset="0.95" stop-color="#5A5A5A"/>
</linearGradient>
<linearGradient id="paint6_linear_5_1777" x1="144.283" y1="84.629" x2="211.05" y2="84.629" gradientUnits="userSpaceOnUse">
<stop stop-color="white" stop-opacity="0"/>
<stop offset="0.95" stop-color="#5A5A5A"/>
</linearGradient>
<linearGradient id="paint7_linear_5_1777" x1="102.78" y1="28.6743" x2="113.743" y2="28.6743" gradientUnits="userSpaceOnUse">
<stop stop-color="white" stop-opacity="0"/>
<stop offset="0.95" stop-color="#5A5A5A"/>
</linearGradient>
<linearGradient id="paint8_linear_5_1777" x1="104.363" y1="38.0643" x2="116.638" y2="38.0643" gradientUnits="userSpaceOnUse">
<stop stop-color="white" stop-opacity="0"/>
<stop offset="0.95" stop-color="#5A5A5A"/>
</linearGradient>
<linearGradient id="paint9_linear_5_1777" x1="286.804" y1="67.5903" x2="286.804" y2="46.3858" gradientUnits="userSpaceOnUse">
<stop offset="0.05" stop-color="#5A5A5A"/>
<stop offset="1" stop-color="white" stop-opacity="0"/>
</linearGradient>
<clipPath id="clip0_5_1777">
<rect width="344" height="340" fill="white"/>
</clipPath>
</defs>
</svg>
