<svg width="328" height="67" viewBox="0 0 328 67" fill="none" xmlns="http://www.w3.org/2000/svg">
<g clip-path="url(#clip0_554_7466)">
<rect x="0.509766" y="-0.62793" width="328" height="70" rx="8" fill="#F5F7F9"/>
<g clip-path="url(#clip1_554_7466)">
<path d="M249.678 25.0347C248.79 23.6016 248.056 22.0445 247.5 20.3759C243.64 8.78516 249.892 -3.7364 261.464 -7.59123C263.947 -8.41823 266.474 -8.77839 268.949 -8.71878C268.868 -8.64659 263.686 -3.8013 265.743 7.03649C267.814 17.9602 264.295 30.9913 249.678 25.0347Z" fill="#90E75E"/>
<path d="M271.848 35.2545C270.936 35.397 270.025 35.4802 269.12 35.5068L271.848 35.2545Z" fill="#90E75E"/>
<path d="M275.445 34.3811C274.253 34.7783 273.049 35.0678 271.848 35.2544C271.848 35.2544 272.602 29.3396 275.904 25.7565C279.205 22.1741 288.564 22.5573 288.564 22.5573C288.564 22.5573 288.566 22.5546 288.569 22.5512C286.118 27.9544 281.513 32.3599 275.445 34.3811Z" fill="#90E75E"/>
<path d="M289.408 6.41703C290.906 10.9159 290.88 15.5548 289.613 19.773L289.611 19.7737C287.941 20.6933 273.389 20.3106 270.952 26.2434C268.512 32.1768 269.119 35.507 269.119 35.507C262.723 35.6976 256.57 33.0717 252.268 28.4367C252.424 28.5165 257.61 31.1077 263.593 26.2704C269.667 21.3596 269.137 12.9987 268.404 9.47832C267.669 5.95655 266.271 -3.74407 272.035 -8.42881C279.858 -7.12934 286.723 -1.64207 289.408 6.41703Z" fill="#90E75E"/>
<path d="M258.331 33.0414C258.331 33.0414 257.34 35.8818 260.124 39.8207L260.459 40.9543L259.934 40.9519C259.934 40.9519 259.124 44.4044 261.756 47.2262C264.389 50.048 268.168 52.1946 272.117 49.8318L272.728 49.6987L272.635 50.3385C272.635 50.3385 273.628 54.8105 281.125 59.4218C288.622 64.0331 294.36 65.8634 294.36 65.8634L310.498 39.0624C310.498 39.0624 307.278 37.7088 304.413 30.0346C301.548 22.3605 303.809 15.637 303 9.7409C302.19 3.84476 300.632 -0.602351 298.033 -4.82323C295.434 -9.04411 292.11 -11.2858 288.556 -9.37046C288.556 -9.37046 284.54 -7.68513 286.551 -0.380901C288.562 6.92333 290.813 12.1826 289.396 18.3184C287.978 24.4543 282.716 30.0192 282.716 30.0192C282.716 30.0192 279.982 28.6196 278.814 27.1979C277.646 25.7762 274.704 22.2488 272.499 20.9409C270.294 19.633 267.663 19.9324 265.672 20.9431C263.682 21.9538 262.54 25.3373 263.868 27.8236C265.195 30.3099 267.458 31.3282 268.405 32.3211C269.353 33.314 270.323 35.2514 270.323 35.2514C270.323 35.2514 264.899 36.0471 258.331 33.0462L258.331 33.0414Z" fill="#FA7921"/>
<path d="M272.117 49.8292C272.117 49.8292 274.256 47.3037 272.988 44.7772C272.988 44.7772 271.232 46.6412 267.153 46.1164C263.074 45.5916 259.932 40.9519 259.932 40.9519L260.123 39.8228C260.123 39.8228 263.147 44.0658 266.492 45.0937C269.838 46.1217 272.78 44.0308 272.78 44.0308C272.78 44.0308 272.071 41.1749 271.836 39.9378C271.601 38.7007 270.322 35.2488 270.322 35.2488L270.958 35.2233C270.958 35.2233 272.552 39.4585 272.828 41.6681C273.103 43.8777 274.71 46.8228 275.05 47.4003C275.39 47.9777 278.368 53.3308 284.47 55.2834L284.201 56.0635C284.201 56.0635 280.157 54.5546 277.795 52.0929C275.433 49.6311 274.103 47.2184 274.103 47.2184C274.103 47.2184 273.985 49.1455 272.634 50.3338L272.114 49.8298L272.117 49.8292Z" fill="#FDA628"/>
<path d="M282.116 30.4642L282.717 30.0141C282.717 30.0141 287.8 32.0559 292.38 32.5681L292.335 33.3464C292.335 33.3464 285.413 32.117 282.116 30.4642Z" fill="#FDA628"/>
<path d="M294.133 65.8957L311.841 75.1119L329.43 47.3115L310.494 39.0567L294.133 65.8957Z" fill="#F5F7F9"/>
<path d="M300.408 69.1602L317.179 41.9712L324.051 44.9662L307.044 72.6157L300.408 69.1602Z" fill="#238662"/>
<path d="M311.841 75.1123L321.308 79.6466C321.856 79.9093 322.512 79.6978 322.804 79.1644L337.761 51.7364C338.008 51.284 337.805 50.7176 337.328 50.5244L329.431 47.3119L311.841 75.1123Z" fill="#FA7921"/>
</g>
</g>
<defs>
<clipPath id="clip0_554_7466">
<rect width="328" height="67" rx="8" fill="white"/>
</clipPath>
<clipPath id="clip1_554_7466">
<rect width="76" height="102" fill="white" transform="translate(240.51 -0.611328) rotate(-18.4227)"/>
</clipPath>
</defs>
</svg>
