<svg width="82" height="67" viewBox="0 0 82 67" fill="none" xmlns="http://www.w3.org/2000/svg">
<g clip-path="url(#clip0_552_7413)">
<rect x="-245.49" y="-0.62793" width="328" height="70" rx="8" fill="#F5F7F9"/>
<g clip-path="url(#clip1_552_7413)">
<path d="M3.67837 25.0356C2.79045 23.6025 2.05632 22.0455 1.5005 20.3768C-2.36031 8.78614 3.89169 -3.73543 15.4644 -7.59025C17.9472 -8.41726 20.4744 -8.77741 22.9486 -8.7178C22.8683 -8.64562 17.6863 -3.80033 19.7426 7.03747C21.8138 17.9611 18.2947 30.9923 3.67837 25.0356Z" fill="#90E75E"/>
<path d="M25.8483 35.2555C24.9362 35.398 24.0249 35.4812 23.1196 35.5078L25.8483 35.2555Z" fill="#90E75E"/>
<path d="M29.4452 34.3821C28.2528 34.7793 27.0495 35.0688 25.8482 35.2554C25.8482 35.2554 26.6022 29.3405 29.9045 25.7574C33.2047 22.175 42.5644 22.5583 42.5644 22.5583C42.5644 22.5583 42.5657 22.5556 42.5691 22.5521C40.1181 27.9554 35.5133 32.3608 29.4452 34.3821Z" fill="#90E75E"/>
<path d="M43.4077 6.41801C44.9063 10.9169 44.8795 15.5558 43.6125 19.774L43.6105 19.7747C41.9411 20.6943 27.3895 20.3116 24.9515 26.2444C22.5115 32.1778 23.1195 35.508 23.1195 35.508C16.7228 35.6986 10.5698 33.0727 6.26764 28.4376C6.42353 28.5175 11.61 31.1086 17.5931 26.2714C23.6673 21.3606 23.137 12.9997 22.4044 9.4793C21.6691 5.95753 20.2707 -3.74309 26.0346 -8.42783C33.8576 -7.12836 40.7233 -1.64109 43.4077 6.41801Z" fill="#90E75E"/>
<path d="M12.3313 33.0424C12.3313 33.0424 11.3403 35.8828 14.1244 39.8217L14.4589 40.9552L13.9341 40.9528C13.9341 40.9528 13.1243 44.4054 15.7564 47.2272C18.3885 50.049 22.168 52.1956 26.1172 49.8328L26.7284 49.6996L26.6353 50.3395C26.6353 50.3395 27.6281 54.8114 35.1252 59.4227C42.6224 64.034 48.3603 65.8644 48.3603 65.8644L64.4982 39.0634C64.4982 39.0634 61.2777 37.7098 58.413 30.0356C55.5483 22.3614 57.8091 15.638 56.9997 9.74187C56.1903 3.84574 54.6318 -0.601374 52.0327 -4.82226C49.4337 -9.04314 46.1102 -11.2848 42.5563 -9.36948C42.5563 -9.36948 38.5402 -7.68416 40.5513 -0.379924C42.5624 6.92431 44.8133 12.1835 43.3957 18.3194C41.9781 24.4553 36.716 30.0202 36.716 30.0202C36.716 30.0202 33.9815 28.6206 32.8139 27.1989C31.6462 25.7772 28.7042 22.2498 26.4993 20.9419C24.2944 19.634 21.663 19.9334 19.6724 20.9441C17.6818 21.9547 16.5405 25.3382 17.8677 27.8245C19.1949 30.3108 21.4576 31.3292 22.4053 32.3221C23.353 33.315 24.3228 35.2524 24.3228 35.2524C24.3228 35.2524 18.8989 36.0481 12.3306 33.0471L12.3313 33.0424Z" fill="#FA7921"/>
<path d="M26.1165 49.8301C26.1165 49.8301 28.2558 47.3046 26.9878 44.7782C26.9878 44.7782 25.2315 46.6422 21.153 46.1174C17.0744 45.5926 13.9321 40.9529 13.9321 40.9529L14.123 39.8238C14.123 39.8238 17.1469 44.0668 20.4925 45.0947C23.8381 46.1226 26.78 44.0318 26.78 44.0318C26.78 44.0318 26.0715 41.1758 25.8363 39.9388C25.6012 38.7017 24.3221 35.2498 24.3221 35.2498L24.9578 35.2243C24.9578 35.2243 26.5522 39.4595 26.8278 41.6691C27.1033 43.8787 28.7104 46.8238 29.0502 47.4013C29.39 47.9787 32.3684 53.3318 38.4696 55.2843L38.2009 56.0645C38.2009 56.0645 34.1575 54.5556 31.795 52.0938C29.4326 49.632 28.1027 47.2193 28.1027 47.2193C28.1027 47.2193 27.9847 49.1465 26.6339 50.3348L26.1145 49.8308L26.1165 49.8301Z" fill="#FDA628"/>
<path d="M36.1159 30.4652L36.7168 30.0151C36.7168 30.0151 41.7997 32.0569 46.3799 32.5691L46.3352 33.3473C46.3352 33.3473 39.4134 32.118 36.1159 30.4652Z" fill="#FDA628"/>
<path d="M48.1333 65.8966L65.8406 75.1129L83.4304 47.3125L64.4941 39.0577L48.1333 65.8966Z" fill="#F5F7F9"/>
<path d="M54.4083 69.1611L71.1787 41.9722L78.0513 44.9672L61.0441 72.6167L54.4083 69.1611Z" fill="#238662"/>
<path d="M65.8408 75.1133L75.3084 79.6476C75.8564 79.9103 76.5118 79.6988 76.8037 79.1654L91.7615 51.7374C92.0078 51.285 91.8055 50.7186 91.3283 50.5254L83.4306 47.3129L65.8408 75.1133Z" fill="#FA7921"/>
</g>
</g>
<defs>
<clipPath id="clip0_552_7413">
<rect width="82" height="67" fill="white"/>
</clipPath>
<clipPath id="clip1_552_7413">
<rect width="76" height="102" fill="white" transform="translate(-5.49023 -0.610352) rotate(-18.4227)"/>
</clipPath>
</defs>
</svg>
