<svg width="39" height="44" viewBox="0 0 39 44" fill="none" xmlns="http://www.w3.org/2000/svg">
<path d="M37.46 6.62001L23.2454 18.2792C21.5049 13.7071 17.1372 10.4667 12.0273 10.4667C11.8633 10.4667 11.7011 10.4704 11.5408 10.4777L11.5408 3.02791C11.5408 1.35551 12.8741 -1.16565e-07 14.5192 -2.60382e-07L35.1609 -2.06494e-06C38.615 -2.36691e-06 40.1502 4.41456 37.46 6.62001Z" fill="#0952EC"/>
<path d="M32.9231 29.0152L15.2183 43.5356C13.8832 44.631 11.8958 43.6638 11.8958 41.92L11.8958 34.9171C11.939 34.9171 11.984 34.9171 12.0273 34.9171C17.7391 34.9171 22.5211 30.8689 23.7482 25.4414L31.6798 25.4414C33.5447 25.4414 34.3717 27.8245 32.9213 29.0134L32.9231 29.0152Z" fill="#0952EC"/>
<path d="M23.2454 18.2794L17.6435 22.8753C15.1894 24.8866 11.5389 23.1116 11.5389 19.9079L11.5389 10.4797C11.7011 10.4724 11.8633 10.4687 12.0254 10.4687C17.1372 10.4687 21.503 13.7091 23.2436 18.2812L23.2454 18.2794Z" fill="#DFF9CE"/>
<path d="M23.7482 25.4414C22.5211 30.8689 17.7373 34.9171 12.0273 34.9171C11.984 34.9171 11.939 34.9171 11.8958 34.9171L11.8958 26.9306C11.8958 26.1082 12.5516 25.4414 13.3606 25.4414L23.75 25.4414L23.7482 25.4414Z" fill="#DFF9CE"/>
<path d="M24.0526 22.6918C24.0526 23.637 23.9481 24.5583 23.7481 25.4413L13.3587 25.4413C12.5497 25.4413 11.8939 26.108 11.8939 26.9305L11.8939 34.917C5.31359 34.8456 1.65423e-06 29.3997 1.0678e-06 22.6918C4.81376e-07 15.9838 5.12439 10.7376 11.5389 10.4775L11.5389 19.9057C11.5389 23.1094 15.1894 24.8844 17.6435 22.8731L23.2454 18.2772C23.7679 19.6474 24.0526 21.1348 24.0526 22.6899L24.0526 22.6918Z" fill="#90E75E"/>
</svg>
