<svg width="44" height="44" viewBox="0 0 44 44" fill="none" xmlns="http://www.w3.org/2000/svg">
<path d="M30.6045 12.5332C32.1381 13.2416 33.5837 14.2037 34.8853 15.4269C36.6582 17.0936 37.9747 19.0648 38.8256 21.1881C38.8256 21.1881 36.7068 21.9134 33.3218 18.7322C29.9388 15.5528 30.6064 12.5332 30.6064 12.5332H30.6045Z" fill="#0952EC"/>
<path d="M26.189 43.3297C21.4987 44.0156 16.5522 42.6326 12.8213 39.1244C8.67713 35.2292 7.02954 29.6522 7.95526 24.4265C9.10726 24.6238 11.7105 24.8061 15.1347 23.4344C19.8194 21.5572 23.2193 23.0191 25.2091 24.8888C27.1989 26.7584 29.3813 30.0298 27.3859 35.2799C25.3905 40.528 26.189 43.3297 26.189 43.3297Z" fill="#0952EC"/>
<path d="M35.6443 38.3592C33.5217 40.6404 30.8961 42.168 28.1002 42.9309C27.4625 41.0068 30.105 33.6109 30.2116 29.5879C30.3182 25.5648 22.9817 18.0111 16.8981 20.7357C10.8146 23.4622 8.38718 22.6035 8.38718 22.6035C9.07912 20.281 10.3041 18.0806 12.062 16.1903C16.4848 11.4401 23.0808 9.9575 28.8539 11.8422C28.8539 11.8422 27.7599 16.0324 31.9153 19.939C36.0053 23.7835 39.3621 23.1521 39.465 23.1315C40.8339 28.3439 39.5828 34.1276 35.6462 38.3573L35.6443 38.3592Z" fill="#0952EC"/>
<path d="M7.37376 17.5905L4.09355 10.095C3.73262 9.27009 4.46945 8.38694 5.34093 8.60303C6.37324 8.86046 7.66363 9.30767 8.88108 10.0818C9.52441 10.4915 10.3734 10.1138 10.5156 9.36216C10.7849 7.92469 11.3478 5.97049 12.5054 4.80173C13.8556 3.43942 16.5954 4.84119 18.2224 5.88781C18.8507 6.29181 19.6848 5.94794 19.8531 5.21887C20.1224 4.04259 20.5413 2.43037 21.0612 1.16766C21.4222 0.292025 22.6509 0.273234 23.0417 1.13759C24.2012 3.70249 26.1985 8.20843 26.3631 9.19681C26.3631 9.19681 27.2345 13.0075 18.6226 16.4894C12.0042 19.1651 9.00264 18.5789 7.96846 18.1636C7.7029 18.0565 7.48971 17.8536 7.37563 17.5905H7.37376Z" fill="#90E75E"/>
</svg>
