<svg width="46" height="46" viewBox="0 0 46 46" fill="none" xmlns="http://www.w3.org/2000/svg">
<rect width="46" height="46" rx="23" fill="#0952EC"/>
<g clip-path="url(#clip0_529_6046)">
<path d="M21.128 19.926C18.9091 19.1263 19.5632 18.0549 15.6099 17.8759C17.2342 15.5331 19.9387 14 23 14C24.7123 14 26.3124 14.4794 27.6745 15.3111C27.6745 15.3111 28.2923 18.1808 26.8729 19.4698C25.4545 20.7577 23.4383 20.7577 21.128 19.926Z" fill="white"/>
<path d="M31.2325 26.6779C29.9749 29.5321 27.2836 31.6087 24.0748 31.9909C24.3258 31.2873 24.556 30.4091 24.9194 29.5895C25.6693 27.8974 27.2208 26.7431 28.7372 26.4217C29.889 26.1764 30.8415 26.5056 31.2325 26.6779Z" fill="white"/>
<path d="M32 23.0273C32 23.9065 31.8745 24.757 31.6399 25.5601C30.3548 24.662 27.9575 24.9746 27.114 25.3204C26.0701 25.75 24.0362 27.3605 23.6354 29.2935C23.3612 30.6101 22.5177 31.5402 22.0067 31.9997C17.5029 31.5048 14 27.6764 14 23.0273C14 21.7217 14.2764 20.4813 14.773 19.3612C14.8391 19.3458 17.1967 18.8266 19.8605 20.8645C22.5639 22.9323 25.8289 21.8045 27.1933 20.9187C28.4762 20.0869 29.1909 18.9945 28.8297 16.1514C30.7689 17.806 31.9989 20.2725 31.9989 23.0273H32Z" fill="white"/>
</g>
<defs>
<clipPath id="clip0_529_6046">
<rect width="18" height="18" fill="white" transform="translate(14 14)"/>
</clipPath>
</defs>
</svg>
