<svg width="160" height="40" viewBox="0 0 160 40" fill="none" xmlns="http://www.w3.org/2000/svg">
<g clip-path="url(#clip0_5_1726)">
<path d="M159.258 33.1319C159.258 33.5001 159.217 33.8576 159.138 34.2015C158.739 35.9271 157.404 37.2937 155.694 37.7346C155.313 37.8346 154.913 37.8861 154.502 37.8861C154.483 37.8861 154.466 37.8861 154.449 37.8846C151.847 37.8573 149.746 35.7393 149.746 33.1319C149.746 30.6867 151.59 28.6748 153.964 28.4096C154.078 28.3945 154.193 28.3854 154.311 28.3824C154.374 28.3808 154.437 28.3778 154.504 28.3778C156.525 28.3778 158.251 29.6383 158.941 31.4154C159.147 31.9502 159.259 32.5274 159.259 33.1335L159.258 33.1319Z" fill="#90E75E"/>
<path d="M54.423 16.0759C53.9516 14.2124 53.1724 12.6277 52.0855 11.3233C50.9986 10.0204 49.5403 9.01591 47.7106 8.30991C45.881 7.60391 43.5723 7.25092 40.7815 7.25092C37.9907 7.25092 35.7366 7.60391 33.9069 8.30991C32.0772 9.01591 30.6098 10.0204 29.5063 11.3233C28.3997 12.6277 27.6114 14.2124 27.1415 16.0759C26.67 17.9409 26.4351 20.0877 26.4351 22.5117C26.4351 24.9357 26.6882 27.1113 27.196 29.0308C27.7023 30.9504 28.5179 32.5608 29.6412 33.8637C30.7645 35.1682 32.2409 36.1635 34.0706 36.8514C35.9003 37.5392 38.1378 37.8831 40.7815 37.8831C43.4252 37.8831 45.6642 37.5392 47.4939 36.8514C49.3236 36.1635 50.8 35.1682 51.9233 33.8637C53.0451 32.5608 53.8606 30.9504 54.3685 29.0308C54.8748 27.1113 55.1294 24.9388 55.1294 22.5117C55.1294 20.0846 54.893 17.9409 54.423 16.0759ZM45.4565 27.6719C45.0927 28.9399 44.5409 29.8368 43.7981 30.361C43.0553 30.8867 42.0503 31.1488 40.7815 31.1488C39.587 31.1488 38.5986 30.8867 37.8209 30.361C37.0403 29.8368 36.4794 28.9399 36.1353 27.6719C35.7912 26.4053 35.6199 24.6842 35.6199 22.5117C35.6199 20.3392 35.773 18.6287 36.0807 17.3803C36.3884 16.1304 36.9326 15.2532 37.7118 14.7457C38.491 14.2382 39.5142 13.9852 40.7815 13.9852C42.1215 13.9852 43.1645 14.2382 43.9073 14.7457C44.6485 15.2532 45.1837 16.1304 45.5096 17.3803C45.837 18.6287 45.9992 20.3407 45.9992 22.5117C45.9992 24.6827 45.8173 26.4053 45.4565 27.6719Z" fill="white"/>
<path d="M76.4931 7.78572C75.8413 7.69633 75.2243 7.65088 74.6452 7.65088C73.6311 7.65088 72.6898 7.78572 71.8196 8.05691C70.9495 8.32961 70.0885 8.74624 69.2381 9.3068C68.3861 9.86887 67.4357 10.637 66.3851 11.6157V7.25092H58.3418L58.357 37.8831H67.2689L67.2553 17.9151C68.377 17.1197 69.4184 16.5668 70.3795 16.2592C71.3391 15.9517 72.3093 15.7971 73.287 15.7971C73.8297 15.7971 74.4285 15.8426 75.0803 15.9335C75.7321 16.0244 76.384 16.1592 77.0373 16.341L78.4502 8.19326C77.7983 8.01297 77.145 7.87662 76.4931 7.78572Z" fill="white"/>
<path d="M129.416 10.4825C127.369 8.32809 124.191 7.25092 119.879 7.25092C117.706 7.25092 115.712 7.53119 113.901 8.09175C112.089 8.65382 110.522 9.56738 109.2 10.8354C107.877 12.1035 106.844 13.7594 106.103 15.8047C105.36 17.8515 104.989 20.3225 104.989 23.2192C104.989 25.7902 105.322 28.0082 105.994 29.8717C106.664 31.7366 107.614 33.2668 108.847 34.4607C110.078 35.656 111.581 36.5256 113.358 37.068C115.132 37.6119 117.18 37.8831 119.499 37.8831C121.129 37.8831 122.678 37.8104 124.145 37.6664C125.613 37.521 127.016 37.3134 128.356 37.0407C129.696 36.7695 131.002 36.4165 132.27 35.9817L131.236 29.6277C130.077 29.8808 128.919 30.108 127.759 30.3065C126.599 30.5065 125.458 30.6504 124.335 30.7413C123.211 30.8322 122.143 30.8761 121.129 30.8761C119.463 30.8761 118.13 30.6958 117.134 30.3337C116.138 29.9717 115.404 29.402 114.933 28.6233C114.462 27.8446 114.208 26.8583 114.172 25.6629V25.2827C114.172 25.1736 114.19 25.0842 114.227 25.0115C116.075 24.9024 117.877 24.8206 119.634 24.766C121.391 24.7115 123.067 24.6312 124.661 24.5221C126.255 24.413 127.704 24.3055 129.008 24.1964C130.313 24.0873 131.435 23.9782 132.378 23.8707C132.451 23.3995 132.487 22.8647 132.487 22.2678V20.8831C132.487 16.1032 131.462 12.6368 129.416 10.4825ZM121.999 19.3892C121.347 19.4438 120.593 19.4892 119.743 19.5256C118.891 19.562 118.012 19.5983 117.107 19.6332C116.202 19.671 115.259 19.6877 114.281 19.6877C114.39 18.4211 114.589 17.3894 114.878 16.5925C115.168 15.7956 115.548 15.1714 116.02 14.7184C116.491 14.2655 117.007 13.9488 117.569 13.7685C118.13 13.5867 118.702 13.4958 119.281 13.4958C120.26 13.4958 121.065 13.6685 121.7 14.0124C122.334 14.3564 122.794 14.9624 123.086 15.832C123.375 16.7001 123.555 17.8409 123.628 19.2529C123.195 19.2908 122.65 19.3347 121.999 19.3892Z" fill="white"/>
<path d="M102.818 24.3858C102.365 23.3541 101.738 22.5041 100.943 21.833C100.145 21.1633 99.1948 20.6119 98.0897 20.1771C96.9846 19.7422 95.7795 19.3802 94.4758 19.0908C93.4981 18.9105 92.6462 18.7469 91.9216 18.6014C91.197 18.4575 90.5709 18.2848 90.0464 18.0863C89.5204 17.8879 89.1308 17.6333 88.8776 17.3258C88.6245 17.0182 88.4971 16.6471 88.4971 16.2123C88.4971 15.4517 88.8322 14.9002 89.5037 14.5548C90.1737 14.2124 91.1424 14.0397 92.4112 14.0397C93.6057 14.0397 94.6926 14.0852 95.6719 14.1746C96.6496 14.2655 97.5546 14.4018 98.3884 14.5821C99.2221 14.7639 100.036 14.9987 100.833 15.2881L101.92 8.71745C101.087 8.46445 100.154 8.21901 99.1221 7.98418C98.0897 7.74784 97.021 7.56755 95.9159 7.44029C94.8108 7.31455 93.6421 7.25092 92.4112 7.25092C88.3152 7.25092 85.2455 8.05691 83.1991 9.66737C81.1511 11.2794 80.1279 13.7503 80.1279 17.0804C80.1279 18.2045 80.2734 19.2362 80.563 20.1771C80.8525 21.1194 81.3239 21.933 81.9758 22.6208C82.6291 23.3086 83.4159 23.8979 84.3406 24.3858C85.2637 24.8751 86.3233 25.2645 87.5194 25.5539C88.6063 25.8084 89.6022 26.025 90.5087 26.2053C91.4137 26.3871 92.1929 26.6053 92.8447 26.8583C93.4981 27.1113 93.9953 27.4007 94.3394 27.7264C94.6835 28.0521 94.8563 28.4688 94.8563 28.9763C94.8563 29.7732 94.5213 30.361 93.8513 30.7413C93.1797 31.1216 92.1383 31.3109 90.7255 31.3109C89.9645 31.3109 89.1505 31.2837 88.2804 31.2291C87.4102 31.1761 86.5144 31.067 85.5897 30.9034C84.6665 30.7413 83.7782 30.5777 82.9277 30.4156C82.0758 30.2519 81.3239 30.0626 80.6721 29.8444L79.6943 36.1999C80.8161 36.5983 81.9758 36.915 83.1718 37.1498C84.3678 37.3846 85.5715 37.5664 86.7857 37.6937C87.9984 37.8195 89.2581 37.8831 90.5633 37.8831C91.9397 37.8831 93.2798 37.774 94.585 37.5574C95.8887 37.3407 97.0756 37.0059 98.1443 36.5529C99.2115 36.0999 100.154 35.4848 100.97 34.7061C101.785 33.9274 102.41 32.9956 102.845 31.9094C103.28 30.8231 103.497 29.5732 103.497 28.1612C103.497 26.6765 103.27 25.4175 102.818 24.3858Z" fill="white"/>
<path d="M147.849 33.132C147.849 32.1275 148.102 31.1821 148.55 30.358C147.746 30.2701 147.138 29.9807 146.725 29.4914C146.217 28.8945 145.964 27.8718 145.964 26.4235V14.2563H153.354V7.2509H145.964V1.49231H138.137L137.14 7.2509L132.866 8.33716V14.2018H137.05V27.1295C137.05 29.6277 137.394 31.673 138.082 33.2668C138.771 34.8606 139.786 36.0287 141.126 36.7695C142.466 37.5119 144.096 37.8831 146.018 37.8831C147.26 37.8831 148.559 37.7846 149.917 37.5861C148.653 36.5165 147.849 34.9182 147.849 33.132Z" fill="white"/>
<path d="M16.7425 8.53562C17.6369 7.63721 18.936 7.18725 20.6429 7.18725C21.4736 7.18725 22.3574 7.25391 23.2942 7.3842C24.2295 7.51601 25.1754 7.71145 26.132 7.97354L27.4417 1.45896C25.9031 0.936282 24.375 0.560557 22.8576 0.336334C21.3387 0.112111 19.8092 0 18.2721 0C15.4434 0 13.0831 0.477231 11.1913 1.43169C9.29795 2.38615 7.8624 3.81785 6.88616 5.72677C5.90841 7.63721 5.42029 10.0143 5.42029 12.8595L0.740723 14.4881V20.4967H5.42029V39.3753H15.4646V20.4967H23.5125V13.87L15.4025 12.9716C15.4025 10.9127 15.8481 9.43402 16.7425 8.53562Z" fill="white"/>
</g>
<defs>
<clipPath id="clip0_5_1726">
<rect width="158.519" height="39.3753" fill="white" transform="translate(0.740723)"/>
</clipPath>
</defs>
</svg>
